<?xml version="1.0" encoding="utf-8"?>
<!-- Generator: Adobe Illustrator 16.0.0, SVG Export Plug-In . SVG Version: 6.00 Build 0)  -->
<!DOCTYPE svg PUBLIC "-//W3C//DTD SVG 1.1 Tiny//EN" "http://www.w3.org/Graphics/SVG/1.1/DTD/svg11-tiny.dtd">
<svg version="1.1" baseProfile="tiny" id="Layer_1" xmlns="http://www.w3.org/2000/svg" xmlns:xlink="http://www.w3.org/1999/xlink"
	 x="0px" y="0px" width="100px" height="86.1px" viewBox="0 1.6 100 86.1" xml:space="preserve">
<path d="M94.7,28.1L52.1,4.1c-1.2-0.7-3.1-0.7-4.2,0L5.2,28.1c-1.2,0.7-2.1,2.4-2.1,3.7V67c0,1.4,1.1,2.8,2.4,3.2l42.1,15.3
	c1.3,0.4,3.4,0.4,4.7,0l42.1-15.3c1.3-0.4,2.4-1.8,2.4-3.2V31.9C96.8,30.5,95.8,28.8,94.7,28.1z"/>
<g>
	<polygon fill="#FFFFFF" points="39.6,56 38.5,59.5 41.8,59.5 40.7,56 	"/>
	<path fill="#FFFFFF" d="M42.8,40.7c0.2-0.2,0.2-0.5,0.2-1.3c0-0.8,0-1.1-0.2-1.3c-0.1-0.1-0.4-0.2-1-0.2h-3.4v3h3.4
		C42.4,40.9,42.7,40.8,42.8,40.7z"/>
	<path fill="#FFFFFF" d="M60.1,24.8c0-0.1-0.1-0.2-0.2-0.2s-0.3,0.1-0.3,0.1c-1.1,0.8-2.2,1.8-3,2.7c0.1,0.2,0.3,0.2,0.4,0.2
		C58,27.7,60.1,25.3,60.1,24.8z"/>
	<path fill="#FFFFFF" d="M57.6,38h-2.2c-0.6,0-0.9,0-1,0.2c-0.2,0.2-0.3,0.6-0.3,3.9c0,3.3,0.1,3.8,0.3,3.9c0.1,0.1,0.3,0.2,1,0.2
		h2.2c0.6,0,0.9,0,1-0.2c0.1-0.2,0.3-0.6,0.3-3.9c0-3.3-0.1-3.8-0.3-3.9C58.4,38.1,58.2,38,57.6,38z"/>
	<path fill="#FFFFFF" d="M57.7,55.4h-3.4v3h3.4c0.6,0,0.9,0,1-0.2c0.2-0.2,0.2-0.5,0.2-1.3c0-0.8,0-1.1-0.2-1.3
		C58.6,55.5,58.4,55.4,57.7,55.4z"/>
	<path fill="#FFFFFF" d="M74.4,55.5h-3.6l0,8.4h3.5c1,0,1.3-0.1,1.6-0.3c0.2-0.2,0.3-0.9,0.3-3.9c0-3-0.1-3.7-0.3-3.9
		C75.8,55.5,75.4,55.5,74.4,55.5z"/>
	<path fill="#FFFFFF" d="M96.7,27.4L52.2,2.2c-1.2-0.7-3.2-0.7-4.4,0L3.2,27.4c-1.2,0.7-2.2,2.5-2.2,3.9v36.8c0,1.4,1.1,2.9,2.5,3.3
		l44.1,16.1c1.4,0.4,3.6,0.4,5,0l44.1-16.1c1.4-0.4,2.5-1.9,2.5-3.3V31.3C99,29.8,98,28.1,96.7,27.4z M37.3,18
		c1.7-0.7,4.3-0.4,7.5-0.4c7.7,0,15.1-0.5,15.5-0.5c0.2,0,0.3-0.2,1.7,1c0.2,0.2,0.8,0.5,0.8,0.8c0,0.2-0.7,0.3-1.1,0.4
		c-1.2,0.1-2.7,0.3-4.2,0.4c-1.1,0.3-2,1-2.7,1.7c-2.2,2.1-3.8,3.2-4.2,3.8c1.1-0.5,1.7-0.9,2.5-0.9c0.5,0,1.5,0.5,1.5,1.2
		c0,0.2-0.1,0.3-0.3,0.5c-0.8,0.7-3.3,2.6-3.3,3.5c0,0.2,0.1,0.2,0.2,0.2c0.3,0,1.3-0.7,2.3-1.4c0.6-0.4,1.1-1.2,1.3-1.5
		c0.5-0.7,1.1-1.4,1.8-2c1.3-1.2,2.3-1.7,2.9-1.7c0.3,0,0.8,0.3,1.2,0.8c0.6,0.5,0.6,0.8,0.6,1c0,1.6-2.7,3.8-3.9,3.8
		c-0.3,0-0.8-0.2-1.2-0.6c-0.3,0.5-0.5,0.9-0.5,1.2c0,0.3,0.1,0.6,0.6,0.6c0.3,0,0.7-0.1,0.9-0.2c3-1.1,4.6-2.6,4.7-2.6
		c0.1,0,0.1,0.1,0.1,0.2c0,0.2-0.7,0.9-1.3,1.5c-1.2,1.1-2.8,2.3-4.4,2.3c-0.7,0-2.2-1.6-2.3-2.3c-1,0.9-2.7,2.1-3.4,2.1
		c-0.9,0-1.4-1.2-1.4-2c0-1,1.3-2.3,2.4-3.4c-1.3,0.5-2.7,1.8-5,4.6c-0.1,0.1-0.4,0.8-0.6,0.8c-0.3,0-1.4-0.9-1.4-1.5
		c0-0.1,0-0.2,0.1-0.4c2-3,6.3-6.9,9-9.3c-0.7,0-1.3,0-1.7,0c-0.5,0-2,1.2-3.1,2.3c-1.3,1.3-4.6,4.5-6.8,7.3
		c-1.3,1.7-1.1,2.2-1.4,2.2c-0.7,0-1.8-2-1.8-2.3c0-1,3-3.9,4.5-5.3c2.5-2.4,4-3.7,4.3-3.9c0.1-0.1,0.4-0.3,0.4-0.3
		c-3.5-0.6-7.2-1.7-9.4-1.1c-2.8,0.8-4.2,6.8-0.2,5.3c1.7-0.6,3.3-1.9,4.2-3.1c0.4-0.4,0.6-0.2,0.2,0.4c-1.3,2-3.2,3.8-6.9,4
		C32.3,25.4,33,19.8,37.3,18z M63.5,42.1c0,4.2-0.5,5.9-1.4,6.7c-0.6,0.6-1.2,0.8-2.8,0.8h-5.6c-1.6,0-2.2-0.2-2.8-0.8
		c-0.9-0.9-1.4-2.6-1.4-6.7c0-4.2,0.5-5.9,1.4-6.7c0.6-0.6,1.2-0.8,2.8-0.8h5.6c1.6,0,2.2,0.2,2.8,0.8C63,36.3,63.5,38,63.5,42.1z
		 M32.4,46.3H34v-8.4h-1.6v-3.4h11.7c1.3,0,2.1,0.2,2.7,0.8c0.7,0.7,0.9,1.5,0.9,3.4c0,2.7-0.7,3.3-2.5,3.7l2.3,3.9H49v3.4h-4.7
		L41,44h-2.5v2.3h1.6v3.4h-7.6V46.3z M18.2,46.3h4.1v-8.4h-4.1v-3.4h13.1v3.4h-4.1v8.4h4.1v3.4H18.2V46.3z M30.1,67.2h-7.8v-3.4H24
		v-2.3l-4.4-6h-1.5v-3.4H26v3.3h-1.3l1.7,2.6h0.1l1.8-2.6h-1.3v-3.3h7.5v3.4h-1.5l-4.5,5.9v2.4h1.7V67.2z M79.4,66
		c-0.9,0.9-2.1,1.2-4.2,1.2h-8.5h-1.8h-4.7l-3.3-5.7h-2.5v2.3H56v3.4h-7h-0.6h-6.8v-3.3H43l-0.4-1.3h-4.9l-0.3,1.3h1.4v3.3h-7.5
		v-3.4H33l4-11.8h6.8l4,11.8h0.6H49h1v-8.4h-1.6v-3.4H60c1.3,0,2.1,0.2,2.7,0.8c0.7,0.7,0.9,1.5,0.9,3.4c0,2.7-0.7,3.3-2.5,3.7
		l2.3,3.9h1.5h1.6v-8.4h-1.6v-3.4h10.3c2.2,0,3.3,0.3,4.2,1.2c1,1,1.6,2.6,1.6,6.4C81,63.4,80.4,65,79.4,66z M81.7,37.9h-1.6v11.7
		h-5l-5.3-8.6v5.2h1.6l0,3.4h-7.2v-3.4h1.6v-8.4h-1.6v-3.4h6.9l5,7.7v-4.4h-1.5v-3.4h7L81.7,37.9L81.7,37.9z"/>
</g>
</svg>
