<?xml version="1.0" encoding="utf-8"?>
<!-- Generator: Adobe Illustrator 16.0.0, SVG Export Plug-In . SVG Version: 6.00 Build 0)  -->
<!DOCTYPE svg PUBLIC "-//W3C//DTD SVG 1.1 Tiny//EN" "http://www.w3.org/Graphics/SVG/1.1/DTD/svg11-tiny.dtd">
<svg version="1.1" baseProfile="tiny" id="Layer_1" xmlns="http://www.w3.org/2000/svg" xmlns:xlink="http://www.w3.org/1999/xlink"
	 x="0px" y="0px" width="281.8px" height="151px" viewBox="0 0 281.8 151" xml:space="preserve">
<path fill="#FFFFFF" d="M202.3,38.3c-4.5-0.7-9.7,6.1-11.5,11.1L177,78.5c-0.6-0.3-4-2.6-4.6-2.9c0,0,11.7-40.3,13.5-48.1
	c1.3-5.7-2.1-10.7-7.6-11.4c-7.7-1-8.9,6.7-11.4,16.9c-2.1,8.5-9.9,36.2-9.9,36.2c-1.1-0.5-4-1.6-5.1-2.1c0-0.1,0.1-0.3,0.1-0.4
	l8.4-56c0.8-5.2-1.9-9.9-8.5-10.9c-3.9-0.6-8.8,3.2-9.6,8.4l-7,55.5c-0.4,0-7,1.4-7.4,1.4c0-0.9-1.6-40.2-1.6-40.2
	c-0.1-5.3,1.4-17.2-7.2-16.8c-9.2,0.4-7.8,11.6-7.7,16.9l0.4,35c0,1.9,0.3,7.4,0.1,8.6c0,20.1-1.6,36.4-4.1,38.6
	c-2.4,2.2-5.6-7.5-7.4-10.7c-1.4-2.7-10-18.2-14.3-19.6c-6.2-2-16.6-0.5-11.7,6c3,4,4.8,8,6.7,11.3c1.8,3.3,12.5,33.9,17.1,40.3
	c2.6,3.6,15.7,13.5,27,14.9c21.6,3.2,33.6,0.3,33.6,0.3c26.2-7.8,30.4-48.7,34.2-64.2l15.6-35C210.2,45.7,207.3,39.1,202.3,38.3z"/>
<path fill="#FFFFFF" d="M44.6,100.9c-1.1,0-2.1-0.4-2.9-1.2c-6.4-6.4-10-14.9-10-23.9s3.6-17.5,10-23.9c1.6-1.6,4.3-1.6,5.9,0
	s1.6,4.2,0,5.8c-4.9,4.8-7.6,11.2-7.6,18c0,6.8,2.7,13.3,7.6,18.1c1.6,1.6,1.6,4.2,0,5.8C46.8,100.5,45.7,100.9,44.6,100.9z"/>
<path fill="#FFFFFF" d="M16.4,106.7c-1.1,0-2.1-0.4-2.9-1.2C4.9,97,0.2,85.6,0.2,73.6c0-12,4.7-23.4,13.3-31.9
	c1.6-1.6,4.3-1.6,5.9,0c1.6,1.6,1.6,4.2,0,5.8c-7,7-10.9,16.2-10.9,26.1c0,9.8,3.9,19.1,10.9,26c1.6,1.6,1.6,4.2,0,5.8
	C18.5,106.3,17.5,106.7,16.4,106.7z"/>
<path fill="#FFFFFF" d="M237.4,103c-1.1,0-2.1-0.4-2.9-1.2c-1.6-1.6-1.6-4.2,0-5.8c10.1-10,10.1-26.2,0-36.2c-1.6-1.6-1.6-4.2,0-5.8
	c1.6-1.6,4.3-1.6,5.9,0c13.3,13.2,13.3,34.7,0,47.9C239.5,102.6,238.4,103,237.4,103z"/>
<path fill="#FFFFFF" d="M265.6,113.1c-1.1,0-2.1-0.4-2.9-1.2c-1.6-1.6-1.6-4.2,0-5.8c14.5-14.4,14.5-37.7,0-52.1
	c-1.6-1.6-1.6-4.2,0-5.8c1.6-1.6,4.3-1.6,5.9,0c17.7,17.6,17.7,46.2,0,63.8C267.7,112.7,266.7,113.1,265.6,113.1z"/>
</svg>
