<?xml version="1.0" encoding="utf-8"?>
<!-- Generator: Adobe Illustrator 16.0.0, SVG Export Plug-In . SVG Version: 6.00 Build 0)  -->
<!DOCTYPE svg PUBLIC "-//W3C//DTD SVG 1.1 Tiny//EN" "http://www.w3.org/Graphics/SVG/1.1/DTD/svg11-tiny.dtd">
<svg version="1.1" baseProfile="tiny" id="Layer_1" xmlns="http://www.w3.org/2000/svg" xmlns:xlink="http://www.w3.org/1999/xlink"
	 x="0px" y="0px" width="100px" height="100px" viewBox="0 0 100 100" xml:space="preserve">
<g id="_x35__17_">
	<path fill="#adb8c4" d="M96.9,3.1c-3.8-3.9-10.6-3-14.5,0.9L62.8,23.7L26.3,10c-3.5-0.9-7-2.1-11.4,2.3c-2.2,2.2-6.8,6.8,0,13.7
		l25,20.5L23.7,62.7L8.5,58.9c-2.3-0.6-3.8-0.1-4.9,1.1c-0.6,0.7-4.8,3.9-1.9,6.8l17.7,13.7l13.7,17.7c2.1,2.1,4.1,0.8,6.8-1.8
		c1.7-1.7,1.3-2.6,0.8-5.1l-3.4-15.1l16.2-16.2l20.5,25c6.8,6.8,11.4,2.2,13.6,0c4.3-4.3,3.2-7.9,2.3-11.4L76.3,37.2l19.6-19.7
		C99.8,13.6,100.8,7,96.9,3.1z M92.8,13.4l-23,23.1l13.9,38.3c0.7,2.2,0.3,4.9-0.6,5.8c-2.5,2.5-4.3,1.3-5.3,0.3l-22.2-30L30.9,75.5
		l4.4,16.5c-1.7-1.8-12-15.4-12.2-15.7C23,76.1,9.6,66.1,8.1,64.6l15.8,4.3L49,44.3L19.1,22.2c-0.9-0.8-2-3,0.3-5.3
		c0.9-0.9,3.6-1.2,5.8-0.5l38.1,13.8L86.6,7.3c1.6-1.6,4.8-1.5,6.2,0C94.3,8.7,94.4,11.8,92.8,13.4z"/>
</g>
</svg>
