<?xml version="1.0" encoding="utf-8"?>
<!-- Generator: Adobe Illustrator 16.0.0, SVG Export Plug-In . SVG Version: 6.00 Build 0)  -->
<!DOCTYPE svg PUBLIC "-//W3C//DTD SVG 1.1 Tiny//EN" "http://www.w3.org/Graphics/SVG/1.1/DTD/svg11-tiny.dtd">
<svg version="1.1" baseProfile="tiny" id="Layer_1" xmlns="http://www.w3.org/2000/svg" xmlns:xlink="http://www.w3.org/1999/xlink"
	 x="0px" y="0px" width="100px" height="100px" viewBox="0 0 100 100" xml:space="preserve">
<g>
	<path fill="#B68644" d="M80.9,3.4C82.4,3.3,83.4,4,84.3,5c3.7,3.7,7.3,7.3,11,11c2.3,2.3,2.3,4.4-0.1,6.8
		C85,32.9,74.8,43.1,64.6,53.2c-2.4,2.4-4.6,2.4-7,0.1c-3.6-3.6-7.2-7.1-10.8-10.8c-2.5-2.5-2.5-4.5,0.1-7
		C57,25.4,67.2,15.2,77.5,5.1C78.5,4.1,79.5,3.2,80.9,3.4z"/>
	<path fill="#B68644" d="M55.1,60.6c0,1.8-0.7,2.8-1.6,3.7C43.1,74.6,32.7,85,22.2,95.3c-2,2-4.3,2-6.3,0.1
		C12,91.6,8.2,87.8,4.4,83.9c-2-2-1.9-4.2,0.1-6.3c10.3-10.3,20.6-20.6,31-30.9c2.3-2.3,4.5-2.3,6.9,0c3.7,3.6,7.3,7.3,11,10.9
		C54.4,58.6,55.1,59.6,55.1,60.6z"/>
	<path fill="#443826" d="M52.2,16c0,1.8-0.7,2.8-1.6,3.7C40.2,30,29.8,40.4,19.4,50.7c-2,2-4.3,2-6.3,0.1C9.2,47,5.4,43.2,1.6,39.3
		c-2-2-1.9-4.2,0.1-6.3C12,22.7,22.4,12.4,32.7,2.2c2.3-2.3,4.5-2.3,6.9,0c3.7,3.6,7.3,7.3,11,10.9C51.5,14,52.2,15,52.2,16z"/>
	<path fill="#443826" d="M83.8,47.9c1.5-0.1,2.5,0.6,3.4,1.6c3.7,3.7,7.3,7.3,11,11c2.3,2.3,2.3,4.4-0.1,6.8
		C87.9,77.5,77.7,87.6,67.5,97.8c-2.4,2.4-4.6,2.4-7,0.1c-3.6-3.6-7.2-7.1-10.8-10.8c-2.5-2.5-2.5-4.5,0.1-7
		C60,69.9,70.2,59.8,80.5,49.6C81.4,48.6,82.4,47.8,83.8,47.9z"/>
</g>
</svg>
