<?xml version="1.0" encoding="utf-8"?>
<!-- Generator: Adobe Illustrator 16.0.0, SVG Export Plug-In . SVG Version: 6.00 Build 0)  -->
<!DOCTYPE svg PUBLIC "-//W3C//DTD SVG 1.1 Tiny//EN" "http://www.w3.org/Graphics/SVG/1.1/DTD/svg11-tiny.dtd">
<svg version="1.1" baseProfile="tiny" id="Layer_1" xmlns="http://www.w3.org/2000/svg" xmlns:xlink="http://www.w3.org/1999/xlink"
	 x="0px" y="0px" width="100px" height="100px" viewBox="0 0 100 100" xml:space="preserve">
<g>
	<path fill-rule="evenodd" fill="#FDFDFC" d="M34.7,0.4c-5.5,4.8-10.4,10.1-15.6,15.2C13.5,21.2,7.8,26.9,2.2,32.5
		c-0.8,0.8-1.4,1.7-2.1,2.5c0-11,0-22,0-33c0-1.4,0.3-1.7,1.7-1.7C12.8,0.4,23.8,0.4,34.7,0.4z"/>
	<path fill-rule="evenodd" fill="#B68644" d="M80.9,3.4C82.4,3.3,83.4,4,84.3,5c3.7,3.7,7.3,7.3,11,11c2.3,2.3,2.3,4.4-0.1,6.8
		C85,32.9,74.8,43.1,64.6,53.2c-2.4,2.4-4.6,2.4-7,0.1c-3.6-3.6-7.2-7.1-10.8-10.8c-2.5-2.5-2.5-4.5,0.1-7
		C57,25.4,67.2,15.2,77.5,5.1C78.5,4.1,79.5,3.2,80.9,3.4z"/>
	<path fill-rule="evenodd" fill="#B68644" d="M55.1,60.6c0,1.8-0.7,2.8-1.6,3.7C43.1,74.6,32.7,85,22.2,95.3c-2,2-4.3,2-6.3,0.1
		c-3.9-3.8-7.7-7.6-11.5-11.5c-2-2-1.9-4.2,0.1-6.3c10.3-10.3,20.6-20.6,31-30.9c2.3-2.3,4.5-2.3,6.9,0c3.7,3.6,7.3,7.3,11,10.9
		C54.4,58.6,55.1,59.6,55.1,60.6z"/>
	<path fill-rule="evenodd" fill="#443826" d="M52.2,16c0,1.8-0.7,2.8-1.6,3.7c-10.4,10.3-20.8,20.7-31.2,31c-2,2-4.3,2-6.3,0.1
		C9.2,47,5.4,43.2,1.6,39.3c-2-2-1.9-4.2,0.1-6.3C12,22.7,22.4,12.4,32.7,2.2c2.3-2.3,4.5-2.3,6.9,0c3.7,3.6,7.3,7.3,11,10.9
		C51.5,14,52.2,15,52.2,16z"/>
	<path fill-rule="evenodd" fill="#443826" d="M83.8,47.9c1.5-0.1,2.5,0.6,3.4,1.6c3.7,3.7,7.3,7.3,11,11c2.3,2.3,2.3,4.4-0.1,6.8
		C87.9,77.5,77.7,87.6,67.5,97.8c-2.4,2.4-4.6,2.4-7,0.1c-3.6-3.6-7.2-7.1-10.8-10.8c-2.5-2.5-2.5-4.5,0.1-7
		c10.2-10.2,20.4-20.3,30.7-30.5C81.4,48.6,82.4,47.8,83.8,47.9z"/>
</g>
</svg>
