<?xml version="1.0" encoding="utf-8"?>
<!-- Generator: Adobe Illustrator 16.0.0, SVG Export Plug-In . SVG Version: 6.00 Build 0)  -->
<!DOCTYPE svg PUBLIC "-//W3C//DTD SVG 1.1 Tiny//EN" "http://www.w3.org/Graphics/SVG/1.1/DTD/svg11-tiny.dtd">
<svg version="1.1" baseProfile="tiny" id="Layer_1" xmlns="http://www.w3.org/2000/svg" xmlns:xlink="http://www.w3.org/1999/xlink"
	 x="0px" y="0px" width="100px" height="100px" viewBox="0 0 100 100" xml:space="preserve">
<g id="_x33__17_">
	<path fill="#adb8c4" d="M93.6,3.3L65.6,22H25.1C11.4,22,0.2,30,0.2,43.8c0,11.6,7.9,19.7,18.7,21.8c0.1,0.8,0,24.9,0,24.9
		c0,3.4,2.8,6.2,6.2,6.2h9.3c3.4,0,6.2-2.8,6.2-6.2V65.6h24.9l28,18.7c3.4,0,6.2-2.8,6.2-6.2V9.5C99.8,6.1,97,3.3,93.6,3.3z
		 M34.4,87.3c0,1.7-1.4,3.1-3.1,3.1h-3.1c-1.7,0-3.1-1.4-3.1-3.1V65.6c0,0,7.8,0,9.3,0V87.3z M50,59.3H25.1
		c-6.2,0-18.7-1.8-18.7-15.6C6.4,30,18.7,28,25.1,28.2H50V59.3z M65.6,59.3h-9.3V28.2h9.3C65.6,28.2,65.6,56,65.6,59.3z M93.6,78
		L71.8,62.4V25.1L93.6,9.5V78z"/>
</g>
</svg>
