<?xml version="1.0" encoding="utf-8"?>
<!-- Generator: Adobe Illustrator 16.0.0, SVG Export Plug-In . SVG Version: 6.00 Build 0)  -->
<!DOCTYPE svg PUBLIC "-//W3C//DTD SVG 1.1 Tiny//EN" "http://www.w3.org/Graphics/SVG/1.1/DTD/svg11-tiny.dtd">
<svg version="1.1" baseProfile="tiny" id="Layer_1" xmlns="http://www.w3.org/2000/svg" xmlns:xlink="http://www.w3.org/1999/xlink"
	 x="0px" y="0px" width="100px" height="100px" viewBox="0 0 100 100" xml:space="preserve">
<g id="_x35__15_">
	<path fill="#adb8c4" d="M50,15.8c-12,0-21.8,9.8-21.8,21.8c0,12,9.8,21.8,21.8,21.8c12,0,21.8-9.8,21.8-21.8
		C71.8,25.5,62,15.8,50,15.8z M50,53.1c-8.6,0-15.6-7-15.6-15.6C34.4,29,41.4,22,50,22c8.6,0,15.6,7,15.6,15.6
		C65.6,46.1,58.6,53.1,50,53.1z M84.3,54.5c2.5-5,3.9-10.6,3.9-16.6C88.2,17.1,71.1,0.2,50,0.2S11.8,17.1,11.8,37.9
		c0,6,1.4,11.6,3.9,16.6L0.2,80.9c0,0,9.8,2,19.8,4c6.7,7.4,13.3,14.8,13.3,14.8l14.3-24.4c0.8,0.1,1.6,0.1,2.4,0.1s1.6-0.1,2.4-0.1
		l14.3,24.4c0,0,6.6-7.4,13.3-14.8c10-2.1,19.8-4,19.8-4L84.3,54.5z M32.6,88.5c0,0-4.8-4.5-9.3-8.9c-6.4-1.8-12.8-3.7-12.8-3.7
		l9-15.4c5.2,6.8,12.7,11.8,21.3,13.9L32.6,88.5z M50,68.7c-17.2,0-31.1-13.9-31.1-31.1C18.9,20.3,32.8,6.4,50,6.4
		s31.1,13.9,31.1,31.1C81.1,54.7,67.2,68.7,50,68.7z M76.7,79.6c-4.5,4.4-9.3,8.9-9.3,8.9l-8.2-14.1c8.6-2.1,16.1-7.1,21.3-13.9
		l9,15.4C89.5,75.9,83.1,77.8,76.7,79.6z"/>
</g>
</svg>
