<?xml version="1.0" encoding="utf-8"?>
<!-- Generator: Adobe Illustrator 16.0.0, SVG Export Plug-In . SVG Version: 6.00 Build 0)  -->
<!DOCTYPE svg PUBLIC "-//W3C//DTD SVG 1.1 Tiny//EN" "http://www.w3.org/Graphics/SVG/1.1/DTD/svg11-tiny.dtd">
<svg version="1.1" baseProfile="tiny" id="Layer_1" xmlns="http://www.w3.org/2000/svg" xmlns:xlink="http://www.w3.org/1999/xlink"
	 x="0px" y="0px" width="100px" height="100px" viewBox="0 0 100 100" xml:space="preserve">
<g id="_x32__16_">
	<path fill="#adb8c4" d="M81.2,75H46.4c-1.4-5.4-6.2-9.4-12.1-9.4s-10.7,4-12.1,9.4h-3.6c-1.7,0-3.1,1.4-3.1,3.1
		c0,1.7,1.4,3.1,3.1,3.1h3.6c1.4,5.4,6.2,9.4,12.1,9.4s10.7-4,12.1-9.4h34.8c1.7,0,3.1-1.4,3.1-3.1C84.4,76.4,83,75,81.2,75z
		 M34.4,85.6c-4.1,0-7.5-3.4-7.5-7.5c0-4.1,3.4-7.5,7.5-7.5s7.5,3.4,7.5,7.5C41.9,82.3,38.5,85.6,34.4,85.6z M87.5,0h-75
		C5.6,0,0,5.6,0,12.5v75C0,94.4,5.6,100,12.5,100h75c6.9,0,12.5-5.6,12.5-12.5v-75C100,5.6,94.4,0,87.5,0z M93.8,87.5
		c0,3.5-2.8,6.2-6.2,6.2h-75c-3.5,0-6.2-2.8-6.2-6.2v-75C6.3,9,9,6.2,12.5,6.2h75c3.5,0,6.2,2.8,6.2,6.3V87.5z M81.2,25H46.4
		c-1.4-5.4-6.2-9.4-12.1-9.4s-10.7,4-12.1,9.4h-3.6c-1.7,0-3.1,1.4-3.1,3.1c0,1.7,1.4,3.1,3.1,3.1h3.6c1.4,5.4,6.2,9.4,12.1,9.4
		s10.7-4,12.1-9.4h34.8c1.7,0,3.1-1.4,3.1-3.1C84.4,26.4,83,25,81.2,25z M34.4,35.6c-4.1,0-7.5-3.4-7.5-7.5c0-4.1,3.4-7.5,7.5-7.5
		s7.5,3.4,7.5,7.5C41.9,32.3,38.5,35.6,34.4,35.6z M81.2,50h-6.7c-1.4-5.4-6.2-9.4-12.1-9.4c-5.8,0-10.7,4-12.1,9.4H18.8
		c-1.7,0-3.1,1.4-3.1,3.1c0,1.7,1.4,3.1,3.1,3.1h31.7c1.4,5.4,6.2,9.4,12.1,9.4c5.8,0,10.7-4,12.1-9.4h6.7c1.7,0,3.1-1.4,3.1-3.1
		C84.4,51.4,83,50,81.2,50z M62.5,60.6c-4.1,0-7.5-3.4-7.5-7.5c0-4.1,3.4-7.5,7.5-7.5S70,49,70,53.1C70,57.3,66.6,60.6,62.5,60.6z"
		/>
</g>
</svg>
