<?xml version="1.0" encoding="utf-8"?>
<!-- Generator: Adobe Illustrator 16.0.0, SVG Export Plug-In . SVG Version: 6.00 Build 0)  -->
<!DOCTYPE svg PUBLIC "-//W3C//DTD SVG 1.1 Tiny//EN" "http://www.w3.org/Graphics/SVG/1.1/DTD/svg11-tiny.dtd">
<svg version="1.1" baseProfile="tiny" id="Layer_1" xmlns="http://www.w3.org/2000/svg" xmlns:xlink="http://www.w3.org/1999/xlink"
	 x="0px" y="0px" width="100px" height="100px" viewBox="0 0 100 100" xml:space="preserve">
<g id="_x31_0_17_">
	<path fill="#adb8c4" d="M96.7,18.3c-1.7,1.9-4.4,4.3-8.4,7.9c-4.2,4.2-10.2,4.2-14.4,0c-4.2-4.2-4.2-10.1,0-14.3
		c3.9-3.9,8-8.5,8-8.5c-11.3-5.2-25-3.2-34.3,6.1c-8.5,8.4-10.9,20.6-7.3,31.2L4.5,76.4c-5.3,5.3-5.3,13.8,0,19.1
		c5.3,5.3,13.9,5.3,19.2,0l35.8-35.7c10.6,3.6,22.8,1.1,31.3-7.3C100,43.2,101.9,29.5,96.7,18.3z M85.9,47.7c-7.6,7.6-19,8.8-28,4
		l-39.1,39c-2.6,2.6-6.9,2.6-9.6,0c-2.6-2.6-2.6-6.9,0-9.6l39.1-39c-4.8-9-3.6-20.3,4-27.9c4.5-4.5,10.5-6.7,16.4-6.8
		c-6.2,6.6-6.2,17,0.3,23.5c6.5,6.5,16.9,6.6,23.5,0.3C92.6,37.2,90.4,43.1,85.9,47.7z"/>
</g>
</svg>
